<svg width="44" height="40" viewBox="0 0 44 40" fill="none" xmlns="http://www.w3.org/2000/svg">
<path d="M17.9957 36.4397L20.0612 32.9009L25.941 35.6979C26.4963 35.962 27.0608 36.0139 27.6344 35.8534C28.208 35.693 28.6411 35.3621 28.9337 34.8608L30.9991 31.322C31.6532 30.2014 32.6063 29.3549 33.8586 28.7826C35.1108 28.2102 36.4368 28.0121 37.8365 28.1881L38.198 27.5688C37.2457 26.626 36.6771 25.5266 36.492 24.2706C36.307 23.0146 36.5415 21.8262 37.1955 20.7056L39.261 17.1668C39.5536 16.6655 39.611 16.1559 39.4333 15.6381C39.2556 15.1202 38.8891 14.7292 38.3338 14.4651L32.4539 11.6681L34.5194 8.12931L40.3992 10.9263C42.0325 11.7032 43.1196 12.8797 43.6605 14.4557C44.2014 16.0317 44.0415 17.557 43.1809 19.0315L41.1154 22.5703C40.8228 23.0716 40.7654 23.5812 40.9431 24.099C41.1208 24.6168 41.4873 25.0078 42.0426 25.272L44.0026 26.2043L39.8717 33.2819L37.9117 32.3496C37.3564 32.0854 36.7919 32.0336 36.2183 32.194C35.6447 32.3544 35.2116 32.6853 34.919 33.1866L32.8536 36.7254C31.993 38.1999 30.6898 39.1813 28.9441 39.6696C27.1983 40.1579 25.5088 40.0136 23.8755 39.2367L17.9957 36.4397ZM4.27606 29.9134C2.64277 29.1365 1.55569 27.96 1.01481 26.384C0.473935 24.808 0.6338 23.2827 1.49441 21.8082L3.55987 18.2694C3.85248 17.7681 3.90992 17.2585 3.7322 16.7407C3.55449 16.2229 3.18797 15.8319 2.63265 15.5677L0.672702 14.6354L4.80362 7.55779L6.76357 8.49012C7.31889 8.75428 7.88335 8.80614 8.45694 8.6457C9.03054 8.48526 9.46364 8.15438 9.75625 7.65305L11.8217 4.11425C12.6823 2.63975 13.9855 1.65836 15.7312 1.17007C17.4769 0.681773 19.1665 0.826096 20.7997 1.60303L26.6796 4.40001L24.6141 7.93881L18.7343 5.14183C18.179 4.87767 17.6145 4.82581 17.0409 4.98625C16.4673 5.14669 16.0342 5.47757 15.7416 5.9789L13.6761 9.5177C13.0221 10.6383 12.0689 11.4848 10.8167 12.0571C9.56449 12.6295 8.23851 12.8276 6.83879 12.6516L6.47733 13.2709C7.42954 14.2136 7.99818 15.3131 8.18325 16.5691C8.36832 17.8251 8.13383 19.0135 7.47976 20.1341L5.41431 23.6729C5.1217 24.1742 5.06425 24.6838 5.24197 25.2016C5.41969 25.7195 5.7862 26.1104 6.34152 26.3746L12.2214 29.1716L10.1559 32.7104L4.27606 29.9134Z" fill="#0059FF"/>
</svg>
