<svg width="46" height="46" viewBox="0 0 46 46" fill="none" xmlns="http://www.w3.org/2000/svg">
<path d="M19.9797 1.00206C21.7518 -0.172602 24.0977 0.0186738 25.6561 1.46489C26.6005 2.34126 27.8688 2.78193 29.1531 2.6799L31.1919 2.51793C33.4492 2.3386 35.5544 3.66899 36.3614 5.78472C36.8165 6.97795 37.7026 7.95704 38.8448 8.52847L39.798 9.00539C42.1857 10.2 43.5574 12.7734 43.2181 15.4216L43.16 15.8747C42.9704 17.3547 43.4185 18.8455 44.3928 19.9756C45.9339 21.7633 46.0948 24.3589 44.7862 26.3232L43.9348 27.6013C43.2451 28.6367 42.9708 29.8939 43.1666 31.1225C43.5285 33.3933 42.278 35.6141 40.1486 36.4821L39.8635 36.5983C38.6004 37.1131 37.5825 38.0922 37.019 39.3343L36.8483 39.7106C35.7391 42.1555 33.2166 43.6429 30.5404 43.4303L29.0579 43.3125C27.8343 43.2153 26.6259 43.6352 25.7261 44.4701C24.1533 45.9298 21.7554 46.0375 20.058 44.7248L19.604 44.3738C18.595 43.5935 17.3287 43.2227 16.0581 43.3355L15.3499 43.3984C12.6949 43.6341 10.1427 42.3148 8.79966 40.0124L8.1004 38.8136C7.56326 37.8927 6.76048 37.1556 5.79725 36.6987L5.69484 36.6502C3.63251 35.6721 2.46225 33.4511 2.8215 31.1971C3.02495 29.9205 2.73996 28.6142 2.02332 27.5385L1.21376 26.3232C-0.0947699 24.3589 0.0661175 21.7633 1.60721 19.9756C2.58146 18.8455 3.02962 17.3547 2.83998 15.8747L2.78193 15.4216C2.44262 12.7734 3.81432 10.2 6.20201 9.00539L7.18067 8.51575C8.30643 7.95251 9.17993 6.98743 9.62852 5.81128C10.4379 3.68922 12.5695 2.37333 14.8292 2.60073L15.2332 2.64138C16.5096 2.76983 17.7911 2.45278 18.8603 1.74402L19.9797 1.00206Z" fill="url(#paint0_radial_2740_3169)"/>
<defs>
<radialGradient id="paint0_radial_2740_3169" cx="0" cy="0" r="1" gradientUnits="userSpaceOnUse" gradientTransform="translate(23 23) rotate(90) scale(24)">
<stop offset="0.307692" stop-color="#A662FF"/>
<stop offset="1" stop-color="white"/>
</radialGradient>
</defs>
</svg>
